<?xml version="1.0" standalone="no"?>
<!DOCTYPE svg PUBLIC "-//W3C//DTD SVG 20010904//EN"
 "http://www.w3.org/TR/2001/REC-SVG-20010904/DTD/svg10.dtd">
<svg version="1.0" xmlns="http://www.w3.org/2000/svg"
 width="500.000000pt" height="500.000000pt" viewBox="0 0 500.000000 500.000000"
 preserveAspectRatio="xMidYMid meet">
<metadata>
Created by potrace 1.14, written by Peter Selinger 2001-2017
</metadata>
<g transform="translate(0.000000,500.000000) scale(0.100000,-0.100000)"
fill="#000000" stroke="none">
<path d="M3890 4986 c-70 -15 -51 -29 21 -15 72 13 72 13 164 7 44 -2 65 -3
48 -1 -18 2 -33 8 -33 12 0 13 -138 11 -200 -3z"/>
<path d="M3760 4960 c0 -13 20 -13 40 0 12 8 9 10 -12 10 -16 0 -28 -4 -28
-10z"/>
<path d="M4180 4966 c0 -3 15 -9 33 -14 17 -6 40 -13 50 -17 9 -4 17 -3 17 3
0 5 -8 13 -17 17 -25 10 -83 18 -83 11z"/>
<path d="M3683 4947 c-43 -16 -55 -30 -18 -21 42 10 75 23 75 29 0 8 -22 5
-57 -8z"/>
<path d="M3571 4904 c-18 -8 -31 -17 -29 -19 7 -7 78 18 78 27 0 11 -8 9 -49
-8z"/>
<path d="M4356 4880 c21 -17 54 -38 73 -47 20 -9 60 -37 89 -61 49 -42 81 -52
52 -17 -16 19 -144 103 -175 115 -11 4 -27 15 -34 24 -7 9 -20 16 -29 16 -8 0
2 -13 24 -30z"/>
<path d="M3490 4870 c-8 -5 -12 -12 -9 -15 8 -8 39 5 39 16 0 11 -11 11 -30
-1z"/>
<path d="M3455 4850 c-3 -5 -1 -10 4 -10 6 0 11 5 11 10 0 6 -2 10 -4 10 -3 0
-8 -4 -11 -10z"/>
<path d="M3404 4825 c-10 -8 -14 -15 -8 -15 5 0 19 7 30 15 10 8 14 15 8 15
-5 0 -19 -7 -30 -15z"/>
<path d="M3727 4833 c-15 -2 -25 -8 -22 -13 2 -4 -8 -8 -23 -8 -34 0 -85 -11
-94 -20 -4 -4 -3 -13 1 -21 7 -11 20 -12 72 -2 35 6 69 18 76 27 7 9 13 11 17
5 9 -13 58 8 53 23 -4 12 -37 16 -80 9z"/>
<path d="M3834 4825 c15 -11 16 -15 5 -16 -24 -1 23 -16 73 -23 32 -5 49 -3
54 5 10 17 -25 40 -52 33 -12 -3 -25 -1 -28 5 -4 6 -22 11 -39 11 -30 -1 -31
-1 -13 -15z"/>
<path d="M3340 4800 c-9 -6 -10 -10 -3 -10 6 0 15 5 18 10 8 12 4 12 -15 0z"/>
<path d="M3976 4791 c-11 -17 17 -30 107 -48 15 -3 27 -9 27 -12 0 -4 7 -8 15
-9 8 -1 22 -3 30 -4 8 -1 15 -5 15 -10 0 -5 10 -6 23 -3 16 4 18 4 8 -3 -11
-8 -9 -12 10 -23 13 -6 32 -23 42 -36 10 -13 23 -21 28 -18 5 4 9 1 9 -6 0
-11 95 -109 106 -109 3 0 17 -14 31 -30 13 -17 29 -27 34 -24 6 3 5 11 -2 20
-8 10 -8 14 0 14 6 0 1 11 -11 25 -12 14 -28 25 -35 25 -7 0 -12 3 -11 8 2 4
-10 21 -25 37 -15 17 -25 23 -22 14 4 -10 2 -20 -4 -24 -11 -6 -32 34 -24 47
4 8 -98 92 -141 114 -15 9 -36 14 -46 11 -12 -3 -17 0 -13 8 6 17 -61 37 -94
29 -14 -4 -23 -2 -23 5 0 13 -26 15 -34 2z"/>
<path d="M3534 4776 c-4 -10 -10 -13 -13 -8 -9 15 -82 -13 -102 -39 -10 -14
-18 -17 -20 -10 -3 9 -14 8 -42 -4 -23 -10 -35 -20 -31 -27 5 -8 2 -9 -9 -5
-26 10 -44 -2 -44 -29 0 -28 -2 -27 32 -12 14 6 25 17 25 24 0 18 21 29 29 15
8 -13 41 -4 41 10 0 5 8 9 18 9 10 0 23 5 29 11 6 6 33 15 59 20 60 11 74 24
51 46 -15 15 -17 15 -23 -1z"/>
<path d="M3253 4763 c-18 -9 -33 -20 -33 -24 0 -4 -25 -20 -55 -34 -57 -28
-71 -41 -32 -30 31 10 167 88 167 98 0 10 -10 8 -47 -10z"/>
<path d="M4622 4673 c14 -16 38 -41 52 -56 14 -15 26 -30 26 -33 0 -12 52 -84
61 -84 14 0 -26 69 -67 114 -19 20 -34 40 -34 42 0 8 -44 43 -54 44 -5 0 2
-12 16 -27z"/>
<path d="M3921 4666 c-10 -12 -5 -13 31 -4 50 11 139 -4 158 -28 7 -7 21 -14
31 -14 10 0 21 -4 24 -10 3 -5 16 -10 28 -10 21 1 21 1 -3 15 -14 8 -31 14
-38 15 -7 0 -26 10 -42 22 -37 27 -170 37 -189 14z"/>
<path d="M3870 4650 c0 -5 4 -10 9 -10 6 0 13 5 16 10 3 6 -1 10 -9 10 -9 0
-16 -4 -16 -10z"/>
<path d="M3055 4640 c-3 -5 -2 -10 4 -10 5 0 13 5 16 10 3 6 2 10 -4 10 -5 0
-13 -4 -16 -10z"/>
<path d="M3203 4638 c-28 -14 -30 -35 -3 -43 23 -7 56 13 55 35 0 19 -23 22
-52 8z"/>
<path d="M3805 4640 c-18 -8 -17 -9 8 -9 15 -1 27 4 27 9 0 12 -8 12 -35 0z"/>
<path d="M3745 4620 c-16 -7 -17 -9 -3 -9 9 -1 20 4 23 9 7 11 7 11 -20 0z"/>
<path d="M3139 4590 c-1 -5 -2 -16 -3 -22 -1 -7 -10 -13 -21 -14 -42 -2 -47
-4 -42 -18 3 -7 0 -19 -6 -26 -9 -10 -7 -11 13 -5 14 4 27 12 28 16 2 5 12 9
22 9 11 0 23 6 27 13 4 8 17 17 28 22 19 8 19 9 -2 12 -13 3 -23 9 -23 14 0
12 -20 12 -21 -1z"/>
<path d="M4220 4596 c0 -6 93 -76 102 -76 21 0 3 21 -42 49 -49 30 -60 35 -60
27z"/>
<path d="M4015 4570 c-16 -7 -12 -9 18 -9 23 -1 36 3 32 9 -7 12 -23 12 -50 0z"/>
<path d="M3955 4560 c-3 -5 1 -10 10 -10 9 0 13 5 10 10 -3 6 -8 10 -10 10 -2
0 -7 -4 -10 -10z"/>
<path d="M3910 4550 c-13 -8 -12 -10 3 -10 9 0 17 5 17 10 0 12 -1 12 -20 0z"/>
<path d="M4120 4550 c0 -6 7 -10 15 -10 8 0 15 2 15 4 0 2 -7 6 -15 10 -8 3
-15 1 -15 -4z"/>
<path d="M2905 4533 c-18 -14 -18 -15 -2 -9 10 3 23 6 28 6 5 0 9 5 9 10 0 14
-12 12 -35 -7z"/>
<path d="M3483 4519 c-18 -12 -30 -25 -27 -30 6 -10 50 19 58 39 7 15 7 16
-31 -9z"/>
<path d="M3828 4533 c7 -3 16 -2 19 1 4 3 -2 6 -13 5 -11 0 -14 -3 -6 -6z"/>
<path d="M3765 4520 c-13 -5 -14 -9 -5 -9 8 0 24 4 35 9 13 5 14 9 5 9 -8 0
-24 -4 -35 -9z"/>
<path d="M4180 4521 c0 -5 5 -13 10 -16 6 -3 10 -2 10 4 0 5 -4 13 -10 16 -5
3 -10 2 -10 -4z"/>
<path d="M3021 4496 c-12 -13 -25 -36 -30 -52 -4 -16 -14 -29 -22 -29 -19 0
-28 -14 -24 -37 3 -15 0 -18 -16 -13 -12 4 -21 1 -25 -9 -3 -9 -10 -14 -15
-11 -10 7 -39 -46 -39 -71 0 -25 26 0 34 32 5 17 12 24 21 20 8 -3 41 21 81
59 66 62 67 65 50 84 -17 18 -17 20 1 29 10 6 15 13 12 16 -3 3 -16 -5 -28
-18z"/>
<path d="M4350 4507 c0 -9 49 -87 55 -87 3 0 5 6 5 13 0 14 -59 87 -60 74z"/>
<path d="M2835 4490 c-3 -5 -1 -10 4 -10 6 0 11 5 11 10 0 6 -2 10 -4 10 -3 0
-8 -4 -11 -10z"/>
<path d="M3684 4485 c-18 -13 -18 -14 4 -8 12 3 25 9 28 14 8 14 -10 11 -32
-6z"/>
<path d="M4231 4470 c12 -16 26 -27 30 -24 14 8 -1 31 -27 43 l-24 11 21 -30z"/>
<path d="M4770 4473 c0 -12 5 -25 10 -28 13 -8 13 15 0 35 -8 12 -10 11 -10
-7z"/>
<path d="M3060 4469 c0 -5 5 -7 10 -4 6 3 10 8 10 11 0 2 -4 4 -10 4 -5 0 -10
-5 -10 -11z"/>
<path d="M3405 4468 c-19 -11 -55 -47 -55 -55 0 -10 19 2 54 32 39 35 39 45 1
23z"/>
<path d="M4481 4446 c-9 -11 2 -31 54 -101 36 -48 65 -94 65 -102 0 -8 5 -11
12 -7 7 4 8 3 4 -5 -9 -14 2 -53 14 -46 4 3 7 -9 6 -26 -1 -38 14 -47 32 -18
10 15 11 24 3 32 -6 6 -11 19 -11 29 0 10 -4 18 -10 18 -5 0 -9 3 -9 8 3 20
-2 32 -13 30 -7 -2 -12 5 -10 15 2 9 -2 17 -8 17 -6 0 -9 4 -6 9 7 10 -50 101
-64 101 -5 0 -10 6 -10 13 0 8 -8 21 -19 31 -15 14 -20 14 -30 2z"/>
<path d="M4793 4413 c3 -10 15 -52 27 -93 32 -109 38 -123 39 -82 1 38 -49
192 -62 192 -5 0 -7 -8 -4 -17z"/>
<path d="M3537 4413 c-10 -9 -9 -23 2 -23 5 0 11 7 15 15 5 15 -5 20 -17 8z"/>
<path d="M2680 4390 c-8 -5 -11 -12 -8 -15 4 -4 17 0 30 9 24 17 5 23 -22 6z"/>
<path d="M3305 4390 c-3 -5 -1 -10 4 -10 6 0 11 5 11 10 0 6 -2 10 -4 10 -3 0
-8 -4 -11 -10z"/>
<path d="M3485 4370 c-16 -17 -16 -20 -3 -15 9 4 19 13 22 21 7 19 2 18 -19
-6z"/>
<path d="M4280 4381 c0 -6 5 -13 10 -16 6 -3 10 1 10 9 0 9 -4 16 -10 16 -5 0
-10 -4 -10 -9z"/>
<path d="M4420 4376 c0 -8 4 -17 9 -20 5 -4 7 3 4 14 -6 23 -13 26 -13 6z"/>
<path d="M2614 4355 c-10 -8 -14 -15 -7 -15 19 0 43 11 43 21 0 13 -14 11 -36
-6z"/>
<path d="M3810 4340 c-8 -5 -10 -10 -5 -10 6 0 17 5 25 10 8 5 11 10 5 10 -5
0 -17 -5 -25 -10z"/>
<path d="M3245 4330 c-3 -5 -1 -10 4 -10 6 0 11 5 11 10 0 6 -2 10 -4 10 -3 0
-8 -4 -11 -10z"/>
<path d="M3436 4325 c-16 -12 -17 -15 -4 -15 8 0 21 7 28 15 16 19 1 19 -24 0z"/>
<path d="M4305 4313 c4 -16 9 -39 12 -53 6 -34 13 -38 13 -8 0 42 -12 88 -22
88 -6 0 -7 -11 -3 -27z"/>
<path d="M4443 4305 c0 -22 2 -30 4 -17 2 12 2 30 0 40 -3 9 -5 -1 -4 -23z"/>
<path d="M1288 4313 c7 -3 16 -2 19 1 4 3 -2 6 -13 5 -11 0 -14 -3 -6 -6z"/>
<path d="M1098 4303 c7 -3 16 -2 19 1 4 3 -2 6 -13 5 -11 0 -14 -3 -6 -6z"/>
<path d="M1015 4290 c-3 -5 -2 -10 4 -10 5 0 13 5 16 10 3 6 2 10 -4 10 -5 0
-13 -4 -16 -10z"/>
<path d="M3380 4270 c-7 -13 -7 -20 -1 -20 6 0 15 9 21 20 7 13 7 20 1 20 -6
0 -15 -9 -21 -20z"/>
<path d="M2405 4270 c-3 -5 1 -10 9 -10 9 0 16 5 16 10 0 6 -4 10 -9 10 -6 0
-13 -4 -16 -10z"/>
<path d="M2787 4260 c-3 -11 -2 -20 3 -20 12 0 31 26 23 33 -11 12 -21 7 -26
-13z"/>
<path d="M2350 4260 c0 -5 5 -10 10 -10 6 0 10 5 10 10 0 6 -4 10 -10 10 -5 0
-10 -4 -10 -10z"/>
<path d="M4191 4254 c0 -11 3 -14 6 -6 3 7 2 16 -1 19 -3 4 -6 -2 -5 -13z"/>
<path d="M2320 4249 c0 -5 5 -7 10 -4 6 3 10 8 10 11 0 2 -4 4 -10 4 -5 0 -10
-5 -10 -11z"/>
<path d="M4456 4223 c4 -21 10 -45 14 -53 4 -8 10 -32 14 -53 4 -21 11 -35 16
-32 4 3 0 33 -11 68 -10 34 -19 70 -19 79 0 9 -5 20 -11 23 -7 5 -8 -5 -3 -32z"/>
<path d="M870 4235 c-8 -9 -8 -15 -2 -15 12 0 26 19 19 26 -2 2 -10 -2 -17
-11z"/>
<path d="M1245 4241 c-3 -5 -1 -12 5 -16 5 -3 10 1 10 9 0 18 -6 21 -15 7z"/>
<path d="M2721 4224 c-22 -26 -21 -48 1 -26 16 16 31 15 22 0 -4 -8 -3 -10 2
-5 10 10 13 57 4 57 -4 0 -17 -12 -29 -26z"/>
<path d="M1309 4238 c-7 -29 -5 -36 7 -31 16 6 18 19 4 28 -5 3 -10 5 -11 3z"/>
<path d="M2218 4233 c7 -3 16 -2 19 1 4 3 -2 6 -13 5 -11 0 -14 -3 -6 -6z"/>
<path d="M3322 4216 c-15 -18 -18 -26 -8 -26 17 0 39 26 34 40 -2 6 -13 0 -26
-14z"/>
<path d="M1351 4223 c0 -5 4 -17 9 -28 8 -17 8 -16 7 8 -1 15 -5 27 -9 27 -4
0 -8 -3 -7 -7z"/>
<path d="M3629 4213 c-13 -15 -12 -15 9 -4 23 12 28 21 13 21 -5 0 -15 -7 -22
-17z"/>
<path d="M4177 4223 c-4 -3 -7 -11 -7 -17 0 -6 5 -5 12 2 6 6 9 14 7 17 -3 3
-9 2 -12 -2z"/>
<path d="M1060 4211 c0 -5 7 -12 16 -15 22 -9 24 -8 24 9 0 8 -9 15 -20 15
-11 0 -20 -4 -20 -9z"/>
<path d="M3110 4190 c-12 -16 -18 -30 -13 -29 12 0 56 59 44 59 -5 0 -19 -13
-31 -30z"/>
<path d="M4322 4182 c1 -23 5 -42 10 -42 9 0 5 67 -6 77 -3 3 -5 -12 -4 -35z"/>
<path d="M1030 4199 c0 -5 5 -7 10 -4 6 3 10 8 10 11 0 2 -4 4 -10 4 -5 0 -10
-5 -10 -11z"/>
<path d="M1190 4200 c0 -5 5 -10 10 -10 6 0 10 5 10 10 0 6 -4 10 -10 10 -5 0
-10 -4 -10 -10z"/>
<path d="M1410 4190 c0 -23 10 -26 28 -8 18 18 15 28 -8 28 -13 0 -20 -7 -20
-20z"/>
<path d="M767 4179 c-3 -12 -10 -18 -16 -15 -5 4 -12 2 -16 -4 -11 -18 21 -11
38 8 19 21 22 32 8 32 -5 0 -11 -9 -14 -21z"/>
<path d="M985 4190 c3 -5 8 -10 11 -10 2 0 4 5 4 10 0 6 -5 10 -11 10 -5 0 -7
-4 -4 -10z"/>
<path d="M2634 4182 c-6 -4 -14 -17 -18 -29 -4 -13 -12 -23 -17 -23 -6 0 -8
10 -5 23 3 12 3 16 0 10 -3 -7 -12 -13 -19 -13 -12 0 -35 -29 -35 -43 0 -7 41
3 78 20 21 9 32 20 28 28 -4 11 2 13 27 8 31 -5 31 -5 12 10 -22 18 -35 20
-51 9z"/>
<path d="M1547 4160 c-4 -15 0 -20 14 -20 21 0 22 1 13 24 -8 22 -21 20 -27
-4z"/>
<path d="M3269 4162 c-36 -44 -40 -54 -9 -25 19 18 32 35 29 37 -3 3 -12 -2
-20 -12z"/>
<path d="M4870 4175 c0 -5 -2 -37 -4 -70 -2 -33 -13 -103 -25 -155 -22 -102
-26 -140 -13 -140 10 0 63 262 62 305 -1 29 -18 80 -20 60z"/>
<path d="M4136 4152 c-3 -9 -9 -23 -12 -29 -3 -7 -2 -13 4 -13 13 0 33 48 23
55 -5 2 -11 -3 -15 -13z"/>
<path d="M955 4150 c-3 -5 -1 -10 4 -10 6 0 11 5 11 10 0 6 -2 10 -4 10 -3 0
-8 -4 -11 -10z"/>
<path d="M1628 4140 c-17 -19 -17 -20 3 -20 11 0 17 -4 14 -10 -3 -5 -2 -10 3
-10 6 0 12 7 16 15 4 11 11 13 31 5 14 -5 25 -6 25 0 0 12 -34 22 -53 14 -9
-3 -17 1 -19 11 -3 14 -5 13 -20 -5z"/>
<path d="M3549 4143 c-13 -16 -12 -17 4 -4 9 7 17 15 17 17 0 8 -8 3 -21 -13z"/>
<path d="M706 4135 c-3 -8 -1 -15 4 -15 6 0 10 7 10 15 0 8 -2 15 -4 15 -2 0
-6 -7 -10 -15z"/>
<path d="M863 4132 c-15 -11 -20 -21 -14 -31 11 -18 32 -5 24 15 -3 9 0 14 7
12 7 -2 15 3 17 10 6 17 -8 15 -34 -6z"/>
<path d="M2520 4135 c-8 -9 -8 -15 -2 -15 12 0 26 19 19 26 -2 2 -10 -2 -17
-11z"/>
<path d="M3060 4135 c-7 -9 -10 -18 -7 -21 3 -3 10 4 17 15 13 25 8 27 -10 6z"/>
<path d="M2485 4127 c-4 -10 -3 -23 4 -30 16 -16 26 0 14 25 -10 21 -11 22
-18 5z"/>
<path d="M4670 4118 c0 -9 -5 -20 -12 -24 -7 -4 -8 -3 -4 4 4 7 2 12 -5 12 -7
0 -9 -9 -5 -22 3 -13 6 -36 6 -53 0 -22 3 -26 10 -15 5 8 12 11 16 7 4 -3 2
-13 -4 -20 -8 -9 -8 -17 -1 -24 7 -7 5 -14 -6 -23 -8 -7 -15 -20 -15 -29 1
-13 3 -13 16 4 17 21 17 20 -10 -39 -10 -22 -19 -58 -21 -81 -1 -23 -13 -56
-29 -79 -15 -23 -26 -53 -27 -75 0 -29 -2 -32 -9 -16 -8 19 -9 19 -9 -3 -1
-12 -7 -25 -15 -28 -18 -7 -37 -59 -30 -82 5 -14 3 -14 -10 2 -14 17 -16 18
-16 3 0 -9 -5 -17 -10 -17 -9 0 -9 -29 -1 -79 2 -12 30 36 31 52 0 9 7 17 15
17 8 0 15 5 15 11 0 6 9 22 20 36 11 14 20 34 20 44 0 10 9 24 20 32 20 14 20
15 3 22 -16 6 -16 8 5 16 13 5 20 14 17 20 -4 6 -13 8 -21 5 -11 -4 -12 -2 -1
14 6 11 19 20 28 20 21 0 43 49 53 120 1 8 6 23 11 33 11 25 -1 227 -14 240
-8 8 -11 6 -11 -5z m10 -68 c0 -5 -2 -10 -4 -10 -3 0 -8 5 -11 10 -3 6 -1 10
4 10 6 0 11 -4 11 -10z"/>
<path d="M2395 4110 c-4 -6 -15 -8 -26 -5 -13 4 -19 2 -19 -9 0 -9 9 -16 20
-16 11 0 20 4 20 10 0 5 7 7 15 4 8 -4 13 -10 10 -14 -3 -5 5 -5 17 -2 19 5
20 7 6 10 -10 2 -18 10 -18 18 0 16 -16 19 -25 4z"/>
<path d="M1780 4103 c0 -14 20 -39 20 -25 0 6 7 12 15 12 8 0 15 5 15 10 0 6
-11 10 -25 10 -14 0 -25 -3 -25 -7z"/>
<path d="M4320 4089 c0 -11 5 -17 10 -14 6 3 10 13 10 21 0 8 -4 14 -10 14 -5
0 -10 -9 -10 -21z"/>
<path d="M1750 4085 c7 -8 17 -12 22 -9 6 4 5 10 -3 15 -22 14 -33 10 -19 -6z"/>
<path d="M1891 4073 c-9 -16 -12 -16 -21 -3 -8 13 -10 12 -10 -4 0 -14 5 -17
23 -12 12 3 25 6 30 6 11 0 9 30 -3 30 -5 0 -14 -8 -19 -17z"/>
<path d="M2073 4073 c9 -9 19 -14 23 -11 10 10 -6 28 -24 28 -15 0 -15 -1 1
-17z"/>
<path d="M2162 4078 c5 -15 28 -23 28 -10 0 5 -7 13 -16 16 -10 4 -14 1 -12
-6z"/>
<path d="M2260 4078 c0 -9 5 -20 10 -23 13 -8 13 5 0 25 -8 13 -10 13 -10 -2z"/>
<path d="M2316 4075 c4 -8 8 -15 10 -15 2 0 4 7 4 15 0 8 -4 15 -10 15 -5 0
-7 -7 -4 -15z"/>
<path d="M1967 4073 c-4 -3 -7 -13 -7 -22 1 -13 3 -13 11 2 11 19 8 33 -4 20z"/>
<path d="M3176 4064 c-5 -14 -4 -15 9 -4 17 14 19 20 6 20 -5 0 -12 -7 -15
-16z"/>
<path d="M3000 4059 c0 -5 5 -7 10 -4 6 3 10 8 10 11 0 2 -4 4 -10 4 -5 0 -10
-5 -10 -11z"/>
<path d="M4492 4025 c-1 -25 3 -45 8 -45 10 0 15 25 10 45 -2 6 -2 18 -2 28 0
9 -3 17 -7 17 -5 0 -9 -20 -9 -45z"/>
<path d="M4317 4053 c-4 -3 -7 -11 -7 -17 0 -6 5 -5 12 2 6 6 9 14 7 17 -3 3
-9 2 -12 -2z"/>
<path d="M4070 4028 c-12 -22 -12 -22 6 -6 10 10 15 20 12 24 -4 3 -12 -5 -18
-18z"/>
<path d="M3121 4006 c-13 -14 -21 -31 -18 -38 4 -9 6 -8 6 3 1 9 11 23 24 32
12 8 19 18 16 21 -3 3 -16 -5 -28 -18z"/>
<path d="M551 4004 c0 -11 3 -14 6 -6 3 7 2 16 -1 19 -3 4 -6 -2 -5 -13z"/>
<path d="M2945 4010 c-3 -5 -2 -10 4 -10 5 0 13 5 16 10 3 6 2 10 -4 10 -5 0
-13 -4 -16 -10z"/>
<path d="M4305 4010 c-3 -5 -1 -10 4 -10 6 0 11 5 11 10 0 6 -2 10 -4 10 -3 0
-8 -4 -11 -10z"/>
<path d="M700 3974 c0 -17 22 -14 28 4 2 7 -3 12 -12 12 -9 0 -16 -7 -16 -16z"/>
<path d="M4036 3975 c-3 -8 -1 -15 3 -15 5 0 11 7 15 15 3 8 1 15 -3 15 -5 0
-11 -7 -15 -15z"/>
<path d="M661 3973 c0 -6 -4 -20 -7 -30 -5 -14 -4 -15 5 -7 7 7 11 20 8 30 -3
11 -5 14 -6 7z"/>
<path d="M4287 3953 c-4 -3 -7 -16 -6 -27 0 -19 1 -19 10 3 10 24 8 36 -4 24z"/>
<path d="M3287 3933 c-4 -3 -7 -11 -7 -17 0 -6 5 -5 12 2 6 6 9 14 7 17 -3 3
-9 2 -12 -2z"/>
<path d="M3997 3913 c-4 -3 -7 -11 -7 -17 0 -6 5 -5 12 2 6 6 9 14 7 17 -3 3
-9 2 -12 -2z"/>
<path d="M465 3889 c-11 -17 1 -21 15 -4 8 9 8 15 2 15 -6 0 -14 -5 -17 -11z"/>
<path d="M4471 3893 c0 -6 -4 -20 -7 -30 -5 -14 -4 -15 5 -7 7 7 11 20 8 30
-3 11 -5 14 -6 7z"/>
<path d="M3230 3879 c0 -5 5 -7 10 -4 6 3 10 8 10 11 0 2 -4 4 -10 4 -5 0 -10
-5 -10 -11z"/>
<path d="M576 3865 c-3 -9 -6 -22 -5 -28 0 -7 5 -1 10 12 5 13 8 26 5 28 -2 2
-6 -3 -10 -12z"/>
<path d="M4254 3816 c-8 -27 -8 -33 3 -29 7 3 13 18 13 34 0 37 -3 37 -16 -5z"/>
<path d="M4441 3802 c-13 -25 -14 -42 -2 -42 10 0 25 50 17 57 -2 3 -9 -4 -15
-15z"/>
<path d="M720 3799 c0 -5 5 -7 10 -4 6 3 10 8 10 11 0 2 -4 4 -10 4 -5 0 -10
-5 -10 -11z"/>
<path d="M415 3790 c-3 -5 -1 -10 4 -10 6 0 11 5 11 10 0 6 -2 10 -4 10 -3 0
-8 -4 -11 -10z"/>
<path d="M1485 3790 c3 -5 8 -10 11 -10 2 0 4 5 4 10 0 6 -5 10 -11 10 -5 0
-7 -4 -4 -10z"/>
<path d="M4807 3783 c-5 -9 -20 -71 -22 -93 0 -8 -8 -26 -18 -40 -9 -14 -23
-41 -32 -60 -19 -42 -34 -67 -58 -94 -22 -25 -50 -76 -42 -76 10 0 35 28 35
39 0 5 10 21 23 35 19 20 70 110 72 126 0 3 8 16 17 30 9 14 21 44 28 68 6 24
14 50 17 58 5 14 -12 20 -20 7z"/>
<path d="M3902 3768 c-7 -7 -12 -21 -11 -32 0 -15 2 -17 6 -6 3 8 12 23 21 33
17 19 3 24 -16 5z"/>
<path d="M4227 3741 c-19 -33 -21 -41 -8 -41 9 0 34 60 28 66 -2 2 -11 -10
-20 -25z"/>
<path d="M1868 3743 c6 -2 18 -2 25 0 6 3 1 5 -13 5 -14 0 -19 -2 -12 -5z"/>
<path d="M4413 3735 c-9 -25 4 -29 17 -6 7 15 7 21 0 21 -6 0 -13 -7 -17 -15z"/>
<path d="M3020 3730 c-9 -6 -10 -10 -3 -10 6 0 15 5 18 10 8 12 4 12 -15 0z"/>
<path d="M392 3710 c0 -14 2 -19 5 -12 2 6 2 18 0 25 -3 6 -5 1 -5 -13z"/>
<path d="M3872 3700 c0 -14 2 -19 5 -12 2 6 2 18 0 25 -3 6 -5 1 -5 -13z"/>
<path d="M4382 3680 c0 -14 2 -19 5 -12 2 6 2 18 0 25 -3 6 -5 1 -5 -13z"/>
<path d="M496 3667 c3 -10 9 -15 12 -12 3 3 0 11 -7 18 -10 9 -11 8 -5 -6z"/>
<path d="M1835 3660 c3 -5 11 -10 16 -10 6 0 7 5 4 10 -3 6 -11 10 -16 10 -6
0 -7 -4 -4 -10z"/>
<path d="M3846 3655 c-3 -8 -1 -15 4 -15 6 0 10 7 10 15 0 8 -2 15 -4 15 -2 0
-6 -7 -10 -15z"/>
<path d="M4343 3635 c-7 -8 -13 -18 -13 -22 0 -4 -25 -35 -55 -67 -30 -33 -53
-62 -51 -64 3 -2 -4 -12 -15 -23 -10 -10 -19 -25 -19 -31 0 -17 49 43 50 60 0
7 5 10 10 7 9 -6 14 8 11 28 0 4 6 7 14 7 8 0 15 5 15 10 0 6 15 27 33 46 37
41 52 64 40 64 -4 -1 -14 -7 -20 -15z"/>
<path d="M4175 3629 c-4 -6 -5 -12 -2 -15 2 -3 7 2 10 11 7 17 1 20 -8 4z"/>
<path d="M2025 3620 c-3 -5 -1 -10 4 -10 6 0 11 5 11 10 0 6 -2 10 -4 10 -3 0
-8 -4 -11 -10z"/>
<path d="M2715 3620 c3 -5 8 -10 11 -10 2 0 4 5 4 10 0 6 -5 10 -11 10 -5 0
-7 -4 -4 -10z"/>
<path d="M2595 3590 c-3 -5 1 -10 10 -10 9 0 13 5 10 10 -3 6 -8 10 -10 10 -2
0 -7 -4 -10 -10z"/>
<path d="M480 3561 c0 -11 5 -23 10 -26 6 -3 10 3 10 14 0 11 -4 23 -10 26 -5
3 -10 -3 -10 -14z"/>
<path d="M480 3510 c0 -5 5 -10 10 -10 6 0 10 5 10 10 0 6 -4 10 -10 10 -5 0
-10 -4 -10 -10z"/>
<path d="M4101 3504 c0 -11 3 -14 6 -6 3 7 2 16 -1 19 -3 4 -6 -2 -5 -13z"/>
<path d="M3767 3493 c-4 -3 -7 -11 -7 -17 0 -6 5 -5 12 2 6 6 9 14 7 17 -3 3
-9 2 -12 -2z"/>
<path d="M4441 3468 c0 -7 4 -22 8 -33 7 -17 9 -15 13 13 3 22 1 32 -9 32 -7
0 -13 -6 -12 -12z"/>
<path d="M893 3445 c-3 -9 -3 -18 -1 -21 3 -3 8 4 11 16 6 23 -1 27 -10 5z"/>
<path d="M4413 3428 c0 -7 -4 -21 -8 -30 -5 -13 -2 -15 15 -11 14 4 20 12 18
26 -3 23 -24 35 -25 15z"/>
<path d="M4162 3398 c-7 -7 -12 -19 -12 -27 0 -14 15 -7 15 7 0 4 4 13 8 20
10 15 5 16 -11 0z"/>
<path d="M4567 3344 c-33 -45 -43 -64 -32 -64 9 0 21 14 26 30 6 17 15 30 21
30 13 0 47 41 48 58 0 23 -15 10 -63 -54z"/>
<path d="M4015 3390 c-3 -5 -1 -10 4 -10 6 0 11 5 11 10 0 6 -2 10 -4 10 -3 0
-8 -4 -11 -10z"/>
<path d="M4362 3359 c-7 -10 -8 -19 -3 -19 5 0 11 -6 14 -12 2 -7 2 -3 0 10
-3 18 1 22 21 22 34 0 40 15 7 17 -17 1 -31 -5 -39 -18z"/>
<path d="M3990 3339 c0 -5 5 -7 10 -4 6 3 10 8 10 11 0 2 -4 4 -10 4 -5 0 -10
-5 -10 -11z"/>
<path d="M4330 3315 c0 -9 6 -12 15 -9 8 4 12 10 9 15 -8 14 -24 10 -24 -6z"/>
<path d="M4305 3279 c-4 -6 -5 -13 -2 -16 7 -7 27 6 27 18 0 12 -17 12 -25 -2z"/>
<path d="M3926 3243 c-6 -14 -5 -15 5 -6 7 7 10 15 7 18 -3 3 -9 -2 -12 -12z"/>
<path d="M4490 3250 c0 -5 4 -10 9 -10 6 0 13 5 16 10 3 6 -1 10 -9 10 -9 0
-16 -4 -16 -10z"/>
<path d="M4289 3248 c-5 -17 -4 -50 3 -54 4 -3 5 -11 2 -17 -4 -7 -3 -8 2 -4
11 10 13 77 2 77 -4 0 -8 -1 -9 -2z"/>
<path d="M4461 3226 c-7 -8 -9 -21 -5 -27 5 -9 10 -5 16 11 10 28 5 36 -11 16z"/>
<path d="M4251 3166 c-9 -10 -8 -15 4 -20 10 -4 15 1 15 14 0 24 -4 25 -19 6z"/>
<path d="M3870 3108 c0 -36 4 -35 14 5 4 16 2 27 -4 27 -5 0 -10 -14 -10 -32z"/>
<path d="M4410 3130 c0 -5 5 -10 11 -10 5 0 7 5 4 10 -3 6 -8 10 -11 10 -2 0
-4 -4 -4 -10z"/>
<path d="M4005 3120 c-3 -6 1 -7 9 -4 18 7 21 14 7 14 -6 0 -13 -4 -16 -10z"/>
<path d="M4227 3110 c-3 -11 -1 -20 4 -20 5 0 9 9 9 20 0 11 -2 20 -4 20 -2 0
-6 -9 -9 -20z"/>
<path d="M3991 3084 c0 -11 3 -14 6 -6 3 7 2 16 -1 19 -3 4 -6 -2 -5 -13z"/>
<path d="M4386 3084 c-11 -28 -6 -39 9 -20 8 11 15 23 15 28 0 14 -18 9 -24
-8z"/>
<path d="M4226 3062 c-3 -5 1 -23 9 -38 l15 -29 0 25 c0 30 -15 56 -24 42z"/>
<path d="M3975 3050 c-3 -5 -1 -10 4 -10 6 0 11 5 11 10 0 6 -2 10 -4 10 -3 0
-8 -4 -11 -10z"/>
<path d="M4210 3010 c0 -11 5 -20 10 -20 6 0 10 9 10 20 0 11 -4 20 -10 20 -5
0 -10 -9 -10 -20z"/>
<path d="M4203 2968 c-6 -9 -5 -22 3 -38 13 -25 14 -25 14 -2 0 12 5 22 10 22
6 0 10 4 10 10 0 5 -7 6 -17 3 -11 -4 -14 -3 -9 5 10 16 1 15 -11 0z"/>
<path d="M3827 2898 c-3 -34 -2 -69 2 -77 5 -8 9 18 10 63 1 42 0 76 -2 76 -3
0 -7 -28 -10 -62z"/>
<path d="M4181 2924 c0 -11 3 -14 6 -6 3 7 2 16 -1 19 -3 4 -6 -2 -5 -13z"/>
<path d="M4340 2931 c0 -6 4 -13 10 -16 6 -3 7 1 4 9 -7 18 -14 21 -14 7z"/>
<path d="M4180 2889 c0 -5 4 -8 9 -5 5 4 12 0 14 -6 3 -8 6 -6 6 5 1 9 -6 17
-14 17 -8 0 -15 -5 -15 -11z"/>
<path d="M4332 2865 c0 -16 2 -22 5 -12 2 9 2 23 0 30 -3 6 -5 -1 -5 -18z"/>
<path d="M4175 2844 c-4 -10 -7 -23 -6 -28 1 -4 -5 -18 -12 -30 -9 -12 -14
-45 -14 -76 0 -54 0 -54 10 -20 6 19 17 39 24 43 15 9 15 75 0 84 -5 3 -4 9 3
13 7 4 10 14 8 21 -3 9 -7 7 -13 -7z m5 -84 c0 -5 -4 -10 -10 -10 -5 0 -10 5
-10 10 0 6 5 10 10 10 6 0 10 -4 10 -10z"/>
<path d="M4324 2819 c-3 -6 -1 -16 5 -22 8 -8 11 -5 11 11 0 24 -5 28 -16 11z"/>
<path d="M3567 2813 c-4 -3 -7 -11 -7 -17 0 -6 5 -5 12 2 6 6 9 14 7 17 -3 3
-9 2 -12 -2z"/>
<path d="M3950 2774 c0 -8 5 -12 10 -9 6 4 8 11 5 16 -9 14 -15 11 -15 -7z"/>
<path d="M4310 2724 c0 -8 5 -12 10 -9 6 3 10 10 10 16 0 5 -4 9 -10 9 -5 0
-10 -7 -10 -16z"/>
<path d="M4170 2667 c0 -9 -8 -17 -17 -18 -11 0 -13 -3 -5 -6 6 -2 9 -9 6 -15
-4 -6 0 -14 7 -19 11 -7 11 -9 1 -9 -7 0 -10 -4 -7 -10 12 -19 32 14 29 48 -3
35 -14 58 -14 29z"/>
<path d="M4303 2653 c3 -13 1 -26 -4 -29 -13 -8 -11 -74 2 -74 7 0 9 11 6 27
-3 15 0 34 5 43 8 12 7 22 -1 36 -12 18 -12 18 -8 -3z"/>
<path d="M4167 2569 c-16 -9 -16 -12 -2 -26 19 -18 28 -12 23 16 -2 16 -7 18
-21 10z"/>
<path d="M3541 2524 c0 -11 3 -14 6 -6 3 7 2 16 -1 19 -3 4 -6 -2 -5 -13z"/>
<path d="M4152 2505 c0 -16 2 -22 5 -12 2 9 2 23 0 30 -3 6 -5 -1 -5 -18z"/>
<path d="M3847 2503 c-4 -3 -7 -15 -7 -26 0 -25 13 -14 15 13 2 22 1 23 -8 13z"/>
<path d="M4296 2491 c-4 -7 -5 -15 -2 -18 9 -9 19 4 14 18 -4 11 -6 11 -12 0z"/>
<path d="M4180 2471 c-6 -12 -7 -21 -1 -21 10 0 24 30 17 37 -2 3 -9 -5 -16
-16z"/>
<path d="M3975 2433 c4 -27 10 -66 14 -88 3 -22 9 -35 13 -29 4 6 2 33 -5 60
-7 27 -12 61 -11 77 1 15 -3 27 -9 27 -6 0 -7 -18 -2 -47z"/>
<path d="M4296 2452 c-3 -5 1 -9 9 -9 8 0 12 4 9 9 -3 4 -7 8 -9 8 -2 0 -6 -4
-9 -8z"/>
<path d="M3844 2430 c3 -14 6 -35 6 -47 0 -13 4 -23 9 -23 14 0 6 69 -9 83
-10 10 -11 7 -6 -13z"/>
<path d="M4167 2413 c-14 -13 -7 -61 9 -67 13 -5 14 -9 4 -21 -12 -14 -4 -59
9 -51 8 5 6 -72 -2 -81 -3 -3 -2 -15 3 -28 5 -13 6 -25 3 -28 -3 -3 0 -21 6
-39 5 -18 11 -84 13 -147 2 -83 6 -118 17 -128 11 -11 11 -17 2 -22 -7 -4 -11
-12 -10 -17 2 -5 0 -49 -5 -99 -4 -49 -9 -117 -12 -149 -6 -72 -137 -473 -187
-573 -45 -88 -156 -198 -354 -350 -169 -130 -378 -274 -439 -303 -27 -12 -71
-33 -99 -46 -88 -42 -392 -108 -439 -95 -5 1 -13 -4 -18 -11 -8 -10 -11 -10
-15 0 -9 22 -40 14 -45 -13 -5 -21 -1 -25 28 -31 18 -3 37 -3 42 0 5 3 45 6
88 7 44 1 84 5 89 9 6 4 28 10 50 14 22 4 65 11 96 16 56 10 312 128 375 174
17 12 64 47 105 77 41 31 113 82 161 115 175 119 386 323 425 412 40 89 133
374 126 385 -3 6 -1 7 4 4 18 -11 34 66 63 303 12 99 1 348 -24 540 -3 25 -8
63 -10 85 -3 22 -5 40 -6 40 -2 0 -11 69 -11 88 0 9 -4 15 -10 12 -5 -4 -9
-15 -9 -26 0 -12 -4 -17 -11 -13 -6 3 -9 19 -7 35 5 31 5 32 -5 22z"/>
<path d="M4303 2393 c1 -18 5 -33 10 -33 9 0 8 19 -3 45 -7 16 -8 14 -7 -12z"/>
<path d="M3850 2333 c0 -12 7 -23 15 -27 13 -5 14 -2 4 17 -17 32 -19 33 -19
10z"/>
<path d="M4297 2283 c-10 -54 -5 -311 8 -394 8 -58 11 -157 8 -318 -4 -213 -7
-241 -29 -308 -13 -40 -24 -78 -24 -84 0 -18 -42 -103 -73 -149 -17 -25 -58
-74 -92 -110 -33 -36 -108 -122 -166 -191 -139 -162 -307 -312 -458 -407 -24
-15 -80 -53 -125 -86 -44 -32 -101 -67 -126 -78 -25 -11 -58 -30 -75 -43 -79
-58 -151 -71 -525 -91 -206 -11 -184 -25 30 -19 297 9 390 25 509 88 71 37
164 92 186 110 6 4 36 24 67 45 210 138 366 263 457 366 142 161 194 219 243
268 70 69 144 183 168 257 59 182 61 197 59 433 -1 123 -5 252 -10 288 -5 36
-12 151 -15 255 -3 105 -7 191 -9 193 -1 1 -5 -10 -8 -25z"/>
<path d="M3990 2285 c0 -8 4 -15 8 -15 5 0 9 7 9 15 0 8 -4 15 -9 15 -4 0 -8
-7 -8 -15z"/>
<path d="M3863 2245 c5 -37 18 -43 15 -7 -1 18 -6 32 -10 32 -5 0 -7 -11 -5
-25z"/>
<path d="M4007 2253 c-4 -3 -7 -16 -6 -27 0 -19 1 -19 10 3 10 24 8 36 -4 24z"/>
<path d="M3867 2193 c-12 -11 -7 -57 8 -83 14 -25 14 -25 15 -2 0 12 -4 22 -9
22 -6 0 -7 16 -4 35 6 34 3 42 -10 28z"/>
<path d="M4019 2187 c6 -8 7 -18 3 -22 -4 -5 -1 -5 6 -1 10 6 10 11 1 22 -6 8
-14 14 -16 14 -3 0 0 -6 6 -13z"/>
<path d="M4028 2144 c-5 -4 -8 -16 -8 -28 0 -14 3 -17 11 -9 6 6 9 19 7 28 -1
9 -6 13 -10 9z"/>
<path d="M4031 2084 c-10 -12 -10 -19 -2 -27 6 -6 11 -9 12 -6 0 2 2 14 5 27
5 26 3 26 -15 6z"/>
<path d="M3881 2066 c-8 -10 -7 -23 3 -52 l13 -39 0 53 c-1 28 -2 52 -3 52 -1
0 -7 -6 -13 -14z"/>
<path d="M880 2040 c0 -6 7 -10 15 -10 8 0 15 2 15 4 0 2 -7 6 -15 10 -8 3
-15 1 -15 -4z"/>
<path d="M4037 2033 c-10 -10 -8 -51 3 -58 5 -3 7 -19 3 -35 -4 -22 -2 -30 9
-30 11 0 13 11 7 58 -3 31 -4 60 -2 65 5 9 -11 9 -20 0z"/>
<path d="M3553 1935 c0 -14 3 -25 8 -25 5 0 9 9 9 19 0 11 -4 22 -9 25 -5 3
-8 -6 -8 -19z"/>
<path d="M3896 1939 c3 -6 6 -32 6 -57 -1 -33 2 -42 10 -34 13 13 2 102 -13
102 -6 0 -7 -5 -3 -11z"/>
<path d="M3560 1890 c0 -5 5 -10 10 -10 6 0 10 5 10 10 0 6 -4 10 -10 10 -5 0
-10 -4 -10 -10z"/>
<path d="M4040 1890 c0 -5 5 -10 10 -10 6 0 10 5 10 10 0 6 -4 10 -10 10 -5 0
-10 -4 -10 -10z"/>
<path d="M4057 1874 c-8 -8 1 -24 14 -24 5 0 9 7 9 15 0 15 -12 20 -23 9z"/>
<path d="M3571 1834 c0 -11 3 -14 6 -6 3 7 2 16 -1 19 -3 4 -6 -2 -5 -13z"/>
<path d="M4059 1823 c-1 -10 -1 -31 -1 -48 4 -132 1 -368 -4 -405 -10 -73 -32
-128 -91 -229 -56 -98 -68 -117 -141 -231 -96 -148 -229 -269 -397 -360 -33
-17 -64 -35 -70 -40 -5 -4 -45 -26 -88 -49 -42 -23 -105 -59 -139 -81 -33 -22
-65 -40 -69 -40 -5 0 -34 -12 -66 -27 -32 -14 -62 -25 -67 -24 -4 1 -19 -5
-32 -14 -13 -8 -32 -15 -42 -15 -11 0 -25 -7 -32 -15 -7 -8 -11 -15 -9 -15 13
1 222 71 259 88 63 27 160 90 160 104 0 6 3 9 6 5 3 -3 43 14 88 38 44 24 114
61 154 82 129 69 213 142 304 266 46 61 89 121 95 132 206 331 207 333 209
615 1 118 -1 230 -4 248 -5 34 -21 44 -23 15z"/>
<path d="M3914 1717 c1 -64 -2 -157 -6 -207 -11 -124 -53 -304 -82 -355 -24
-40 -114 -165 -127 -175 -3 -3 -27 -36 -54 -75 -86 -126 -135 -168 -297 -258
-38 -21 -68 -42 -68 -48 0 -5 17 0 37 11 21 11 44 20 51 20 24 0 180 109 211
147 47 58 116 151 171 228 28 39 60 81 71 95 28 32 55 96 68 157 5 26 17 82
27 123 19 89 25 423 7 441 -8 8 -10 -22 -9 -104z"/>
<path d="M3590 1760 c0 -5 5 -10 11 -10 5 0 7 5 4 10 -3 6 -8 10 -11 10 -2 0
-4 -4 -4 -10z"/>
<path d="M3618 1617 c2 -17 6 -39 10 -47 3 -8 7 -26 8 -40 3 -23 17 -101 29
-157 9 -38 24 -26 19 15 -11 82 -39 200 -46 195 -5 -2 -6 6 -3 19 4 15 1 29
-8 36 -11 9 -13 6 -9 -21z"/>
<path d="M3670 1266 c0 -26 5 -46 13 -49 9 -4 9 -8 1 -14 -6 -4 -15 -24 -18
-43 -12 -59 -27 -90 -108 -223 -43 -70 -78 -132 -78 -139 0 -23 41 27 71 86
17 34 44 80 60 104 61 90 85 165 88 270 1 40 -2 52 -14 52 -11 0 -15 -11 -15
-44z"/>
<path d="M2497 799 c7 -7 15 -10 18 -7 3 3 -2 9 -12 12 -14 6 -15 5 -6 -5z"/>
<path d="M3455 778 c-4 -10 -13 -18 -20 -18 -7 0 -18 -6 -24 -14 -22 -27 -90
-68 -128 -77 -21 -6 -92 -21 -158 -34 -108 -23 -113 -24 -50 -20 108 9 275 49
275 67 0 4 7 8 16 8 8 0 21 6 29 13 7 7 27 25 45 40 17 15 30 33 27 40 -3 8
-7 6 -12 -5z"/>
<path d="M2650 690 c8 -5 20 -10 25 -10 6 0 3 5 -5 10 -8 5 -19 10 -25 10 -5
0 -3 -5 5 -10z"/>
<path d="M2695 670 c4 -6 11 -8 16 -5 14 9 11 15 -7 15 -8 0 -12 -5 -9 -10z"/>
<path d="M2315 650 c4 -6 11 -8 16 -5 14 9 11 15 -7 15 -8 0 -12 -5 -9 -10z"/>
<path d="M2340 630 c0 -5 7 -10 16 -10 8 0 12 5 9 10 -3 6 -10 10 -16 10 -5 0
-9 -4 -9 -10z"/>
<path d="M2910 621 c0 -5 7 -11 15 -15 8 -3 15 -1 15 3 0 5 -7 11 -15 15 -8 3
-15 1 -15 -3z"/>
<path d="M2950 610 c0 -5 11 -10 25 -10 14 0 25 5 25 10 0 6 -11 10 -25 10
-14 0 -25 -4 -25 -10z"/>
<path d="M3246 593 c-7 -8 -96 -32 -228 -64 -52 -12 -89 -26 -92 -35 -4 -11
-1 -14 12 -10 9 3 66 17 125 31 112 26 207 61 207 76 0 11 -14 12 -24 2z"/>
<path d="M2408 583 c7 -3 16 -2 19 1 4 3 -2 6 -13 5 -11 0 -14 -3 -6 -6z"/>
<path d="M2858 494 c-4 -3 -18 -7 -32 -10 -14 -2 -38 -5 -52 -7 -36 -6 -56
-27 -23 -27 50 1 153 26 157 38 4 12 -39 18 -50 6z"/>
<path d="M2620 471 c22 -12 90 -21 90 -11 0 12 -27 20 -68 20 -25 -1 -32 -3
-22 -9z"/>
<path d="M2280 350 c0 -5 5 -10 10 -10 6 0 10 5 10 10 0 6 -4 10 -10 10 -5 0
-10 -4 -10 -10z"/>
<path d="M2445 270 c3 -5 8 -10 11 -10 2 0 4 5 4 10 0 6 -5 10 -11 10 -5 0 -7
-4 -4 -10z"/>
<path d="M2485 270 c-25 -9 -12 -15 70 -32 82 -17 236 -18 242 -2 3 8 -17 10
-64 7 -47 -4 -93 1 -149 14 -44 11 -89 16 -99 13z"/>
<path d="M2109 248 c-7 -23 -3 -45 8 -41 15 6 18 43 3 43 -5 0 -10 -1 -11 -2z"/>
<path d="M2186 192 c-10 -9 -7 -24 3 -17 5 3 12 1 15 -3 8 -13 58 -2 53 12 -4
11 -61 18 -71 8z"/>
<path d="M2320 159 c0 -21 22 -29 73 -24 20 2 37 0 37 -4 0 -4 36 -8 81 -9 78
-2 80 -2 77 20 -3 20 -9 23 -58 26 -30 1 -62 3 -70 4 -9 1 -28 -2 -43 -6 -15
-3 -27 -3 -27 1 0 5 -16 8 -35 9 -27 1 -35 -3 -35 -17z"/>
<path d="M2008 83 c6 -2 18 -2 25 0 6 3 1 5 -13 5 -14 0 -19 -2 -12 -5z"/>
<path d="M2137 39 c7 -7 15 -10 18 -7 3 3 -2 9 -12 12 -14 6 -15 5 -6 -5z"/>
<path d="M2275 20 c3 -5 10 -10 16 -10 5 0 9 5 9 10 0 6 -7 10 -16 10 -8 0
-12 -4 -9 -10z"/>
<path d="M2405 10 c8 -13 32 -13 40 0 4 6 -5 10 -20 10 -15 0 -24 -4 -20 -10z"/>
</g>
</svg>
